<svg width="300" height="300" viewBox="0 0 300 300" fill="none" xmlns="http://www.w3.org/2000/svg">
<path d="M299.6 150.434C299.6 130.587 274.745 111.778 236.639 100.114C245.433 61.2744 241.524 30.3739 224.303 20.4809C220.334 18.1603 215.692 17.0611 210.624 17.0611V30.6793C213.433 30.6793 215.692 31.2289 217.586 32.267C225.891 37.0303 229.494 55.1675 226.685 78.4956C226.013 84.236 224.914 90.2817 223.57 96.4496C211.601 93.5183 198.532 91.2588 184.792 89.7932C176.548 78.4956 167.998 68.2361 159.388 59.2591C179.296 40.7555 197.983 30.6182 210.685 30.6182V17C193.891 17 171.907 28.9693 149.678 49.7325C127.449 29.0915 105.465 17.2443 88.6708 17.2443V30.8625C101.312 30.8625 120.06 40.9387 139.968 59.3202C131.418 68.2972 122.869 78.4956 114.747 89.7932C100.946 91.2588 87.877 93.5183 75.9076 96.5106C74.5031 90.4038 73.4649 84.4802 72.7321 78.8009C69.8619 55.4729 73.4038 37.3357 81.648 32.5113C83.4801 31.4121 85.8617 30.9235 88.6708 30.9235V17.3053C83.5411 17.3053 78.8999 18.4046 74.8695 20.7252C57.7093 30.6182 53.862 61.4576 62.7169 100.175C24.7326 111.9 0 130.648 0 150.434C0 170.281 24.8547 189.09 62.9612 200.754C54.1674 239.593 58.0757 270.494 75.2969 280.387C79.2664 282.707 83.9075 283.806 89.0373 283.806C105.831 283.806 127.815 271.837 150.044 251.074C172.273 271.715 194.258 283.562 211.051 283.562C216.181 283.562 220.822 282.463 224.853 280.142C242.013 270.249 245.86 239.41 237.005 200.693C274.867 189.029 299.6 170.22 299.6 150.434V150.434ZM220.089 109.701C217.83 117.579 215.021 125.701 211.845 133.823C209.341 128.938 206.715 124.052 203.845 119.167C201.036 114.281 198.044 109.518 195.051 104.877C203.723 106.159 212.089 107.747 220.089 109.701ZM192.12 174.739C187.357 182.983 182.471 190.8 177.403 198.067C168.304 198.861 159.082 199.288 149.8 199.288C140.579 199.288 131.357 198.861 122.319 198.128C117.251 190.861 112.304 183.105 107.541 174.922C102.9 166.922 98.686 158.8 94.8387 150.617C98.6249 142.434 102.9 134.251 107.48 126.251C112.243 118.007 117.129 110.19 122.197 102.923C131.296 102.129 140.518 101.701 149.8 101.701C159.021 101.701 168.243 102.129 177.281 102.862C182.349 110.129 187.296 117.884 192.059 126.068C196.7 134.068 200.914 142.19 204.761 150.373C200.914 158.556 196.7 166.739 192.12 174.739ZM211.845 166.8C215.143 174.983 217.952 183.166 220.273 191.105C212.273 193.059 203.845 194.708 195.113 195.991C198.105 191.288 201.097 186.464 203.906 181.517C206.715 176.632 209.341 171.685 211.845 166.8ZM149.922 231.96C144.243 226.097 138.563 219.563 132.945 212.418C138.441 212.662 144.06 212.845 149.739 212.845C155.479 212.845 161.159 212.723 166.716 212.418C161.22 219.563 155.54 226.097 149.922 231.96ZM104.487 195.991C95.8158 194.708 87.4495 193.12 79.4496 191.166C81.7091 183.288 84.5182 175.166 87.6938 167.044C90.1975 171.93 92.8235 176.815 95.6937 181.701C98.5639 186.586 101.495 191.349 104.487 195.991ZM149.617 68.9079C155.296 74.7704 160.975 81.3047 166.594 88.4497C161.098 88.2054 155.479 88.0222 149.8 88.0222C144.06 88.0222 138.38 88.1443 132.823 88.4497C138.319 81.3047 143.999 74.7704 149.617 68.9079ZM104.426 104.877C101.434 109.579 98.4417 114.404 95.6326 119.35C92.8235 124.236 90.1975 129.121 87.6938 134.006C84.3961 125.823 81.587 117.64 79.2664 109.701C87.2663 107.808 95.6937 106.159 104.426 104.877ZM49.1598 181.334C27.5417 172.113 13.5571 160.021 13.5571 150.434C13.5571 140.846 27.5417 128.694 49.1598 119.533C54.4117 117.274 60.1521 115.259 66.0757 113.365C69.5565 125.335 74.1366 137.793 79.816 150.556C74.1977 163.258 69.6787 175.655 66.2589 187.563C60.2131 185.67 54.4727 183.594 49.1598 181.334ZM82.0144 268.6C73.7092 263.837 70.1062 245.7 72.9153 222.372C73.587 216.632 74.6863 210.586 76.0298 204.418C87.9991 207.349 101.068 209.609 114.808 211.074C123.052 222.372 131.602 232.631 140.212 241.608C120.304 260.112 101.617 270.249 88.9151 270.249C86.167 270.188 83.8465 269.639 82.0144 268.6V268.6ZM226.868 222.067C229.738 245.395 226.196 263.532 217.952 268.356C216.12 269.455 213.738 269.944 210.929 269.944C198.288 269.944 179.54 259.868 159.632 241.486C168.181 232.509 176.731 222.311 184.853 211.013C198.654 209.548 211.723 207.288 223.692 204.296C225.097 210.464 226.196 216.387 226.868 222.067V222.067ZM250.379 181.334C245.127 183.594 239.387 185.609 233.463 187.502C229.982 175.533 225.402 163.075 219.723 150.312C225.341 137.609 229.86 125.213 233.28 113.304C239.326 115.197 245.066 117.274 250.44 119.533C272.058 128.755 286.043 140.846 286.043 150.434C285.982 160.021 271.997 172.174 250.379 181.334V181.334Z" fill="#61DAFB"/>
<path d="M149.739 178.342C165.152 178.342 177.647 165.847 177.647 150.434C177.647 135.02 165.152 122.525 149.739 122.525C134.326 122.525 121.831 135.02 121.831 150.434C121.831 165.847 134.326 178.342 149.739 178.342Z" fill="#61DAFB"/>
</svg>
