<svg width="300" height="300" viewBox="0 0 300 300" fill="none" xmlns="http://www.w3.org/2000/svg">
<path d="M0 150.005V300H300V0H0V150.005ZM241.76 138.052C249.377 139.955 255.189 143.339 260.523 148.861C263.289 151.814 267.381 157.195 267.714 158.479C267.807 158.854 254.762 167.62 246.855 172.527C246.574 172.715 245.425 171.482 244.136 169.574C240.278 163.95 236.233 161.526 230.041 161.1C220.948 160.481 215.042 165.243 215.135 173.193C215.135 175.527 215.464 176.905 216.42 178.818C218.421 182.961 222.138 185.436 233.801 190.489C255.278 199.723 264.465 205.817 270.174 214.489C276.549 224.154 277.984 239.585 273.652 251.059C268.89 263.537 257.083 272.012 240.466 274.824C235.324 275.729 223.132 275.588 217.61 274.59C205.564 272.448 194.136 266.495 187.086 258.686C184.321 255.639 178.944 247.684 179.277 247.108C179.418 246.92 180.66 246.156 182.043 245.345L193.185 238.924L201.809 233.922L203.619 236.594C206.14 240.452 211.667 245.735 215 247.497C224.571 252.545 237.714 251.828 244.188 246.02C246.953 243.499 248.092 240.878 248.092 237.021C248.092 233.543 247.67 232.019 245.856 229.404C243.522 226.076 238.76 223.263 225.232 217.404C209.754 210.739 203.089 206.595 196.995 200.023C193.471 196.213 190.138 190.119 188.755 185.024C187.611 180.787 187.325 170.165 188.23 165.881C191.417 150.881 202.705 140.499 218.993 137.405C224.281 136.407 236.571 136.786 241.755 138.071L241.76 138.052ZM171.332 150.567L171.426 162.848H132.38V273.798H104.762V162.848H65.7167V150.802L66.0448 138.427C66.1854 138.239 89.9503 138.146 118.759 138.193L171.187 138.333L171.332 150.567Z" fill="#007ACC"/>
</svg>
