<svg width="24" height="24" viewBox="0 0 24 24" fill="none" xmlns="http://www.w3.org/2000/svg">
<path d="M23.9475 13.1224H0.0547256V13.1227H23.9475V13.1224Z" fill="#C42126"/>
<path d="M22.7021 6.57156H1.29916V6.57192H22.7021V6.57156Z" fill="#C42126"/>
<path d="M23.5524 8.75484H0.448053V8.75519H23.5524V8.75484Z" fill="#C42126"/>
<path d="M5.1582 21.8559H18.8432L18.8439 21.8551H5.15744L5.1582 21.8559Z" fill="#C42126"/>
<path d="M12.0005 0C11.7648 0 11.531 0.00851213 11.2989 0.021787H12.7023C12.47 0.00851213 12.2362 0 12.0005 0Z" fill="#C42126"/>
<path d="M23.9505 10.9386H0.0501595V10.9389H23.9505V10.9386Z" fill="#C42126"/>
<path d="M15.5473 4.38826H21.2774C20.5968 3.5597 19.8058 2.82624 18.9294 2.20531H14.6266C14.9827 2.83171 15.2889 3.57085 15.5473 4.38826Z" fill="#F3F4F5"/>
<path d="M14.6266 2.2053H18.9294C17.1506 0.944748 15.015 0.155349 12.7023 0.0217896H12.3329C13.4214 0.158794 13.9214 0.964407 14.6266 2.2053Z" fill="#E73625"/>
<path d="M23.5532 8.75502C23.3398 7.9941 23.0537 7.26403 22.7021 6.57207H16.1098C16.2434 7.27295 16.3488 8.00504 16.4268 8.75502H23.5532Z" fill="#F3F4F5"/>
<path d="M15.739 6.57172H22.7019C22.3051 5.79129 21.8284 5.05895 21.2774 4.38841H15.1951C15.4095 5.06731 15.5916 5.79965 15.739 6.57172Z" fill="#E73625"/>
<path d="M16.6792 13.1219H23.9465C23.981 12.7526 24.0005 12.3784 24.0005 12.0002C24.0005 11.6423 23.9818 11.2889 23.9511 10.9388H16.6809C16.7046 11.6648 16.7042 12.3962 16.6792 13.1219Z" fill="#F3F4F5"/>
<path d="M23.9513 10.9384C23.8855 10.1886 23.7504 9.45915 23.5532 8.75543H16.1207C16.1953 9.4703 16.2446 10.2017 16.2687 10.9384H23.9513Z" fill="#E73625"/>
<path d="M15.9844 17.4887H22.6706C23.0272 16.7975 23.3178 16.0669 23.5357 15.3054H16.3077C16.2281 16.0565 16.12 16.7884 15.9844 17.4887Z" fill="#F3F4F5"/>
<path d="M23.5359 15.3052C23.7373 14.6017 23.8772 13.8722 23.9467 13.1223H16.4528C16.4272 13.8595 16.3764 14.5907 16.3003 15.3052H23.5359Z" fill="#E73625"/>
<path d="M18.8439 21.8552C19.733 21.2367 20.5352 20.5025 21.2266 19.6722H15.5964C15.3332 20.493 15.0207 21.231 14.6582 21.8552H18.8439Z" fill="#F3F4F5"/>
<path d="M15.3845 19.672H21.2266C21.784 19.0023 22.2679 18.2699 22.6705 17.4887H15.9353C15.7859 18.2614 15.6019 18.9941 15.3845 19.672Z" fill="#E73625"/>
<path d="M11.5657 23.9915C11.5414 23.9907 11.5172 23.9896 11.4929 23.9888C11.5172 23.9896 11.5414 23.9907 11.5657 23.9915Z" fill="#DC3027"/>
<path d="M12.0005 24C14.5446 24 16.9019 23.2059 18.8432 21.8559H14.5003C13.7295 23.1839 13.2209 24 12.0005 24Z" fill="#E73625"/>
<path d="M12.0005 24C11.8548 24 11.7101 23.9966 11.5657 23.9915C11.7116 23.9964 11.8565 24 12.0005 24Z" fill="#C42126"/>
<path d="M15.024 2.20531H5.07202C4.19553 2.82624 3.40466 3.55965 2.72384 4.38826H15.9444C15.686 3.57085 15.38 2.83171 15.024 2.20531Z" fill="#F3F4F5"/>
<path d="M5.07202 2.2053H15.024C14.3186 0.964407 13.4214 0.158794 12.3329 0.0217896H11.2989C8.98618 0.155349 6.8506 0.944748 5.07202 2.2053Z" fill="#E73625"/>
<path d="M0.448257 8.75502H16.8052C16.7272 8.00489 16.6218 7.27295 16.4883 6.57207H1.29937C0.947686 7.26408 0.661618 7.9941 0.448257 8.75502Z" fill="#F3F4F5"/>
<path d="M2.72383 4.38826C2.17323 5.05879 1.69614 5.79109 1.29957 6.57157H16.4883C16.341 5.79965 16.159 5.06736 15.9444 4.38826C15.9444 4.38826 2.72383 4.38826 2.72383 4.38826Z" fill="#E73625"/>
<path d="M0.000713348 12.0002C0.000713348 12.3784 0.020423 12.7526 0.0547248 13.1219H16.9519C16.9769 12.3962 16.9772 11.665 16.9536 10.9389H0.0501648C0.0194603 11.2889 0.000713348 11.6423 0.000713348 12.0002Z" fill="#F3F4F5"/>
<path d="M0.0501595 10.9384H16.9534C16.9293 10.2015 16.8799 9.47035 16.8054 8.75543H0.448051C0.250803 9.4593 0.115723 10.1886 0.0501595 10.9384Z" fill="#E73625"/>
<path d="M16.7993 15.3052H0.465477C0.683398 16.0669 0.974229 16.7973 1.33062 17.4885H16.4761C16.6118 16.7884 16.7195 16.0565 16.7993 15.3052Z" fill="#F3F4F5"/>
<path d="M0.465487 15.3052H16.7994C16.8754 14.5907 16.9263 13.8593 16.9519 13.1223H0.0547256C0.124241 13.8724 0.264286 14.6017 0.465487 15.3052Z" fill="#E73625"/>
<path d="M5.15744 21.8552H14.9874C15.3499 21.2308 15.6625 20.493 15.9255 19.6722H2.77481C3.46621 20.5025 4.26823 21.2367 5.15744 21.8552Z" fill="#F3F4F5"/>
<path d="M1.33084 17.4887C1.7335 18.2699 2.21737 19.0022 2.77481 19.672H15.9255C16.1427 18.9941 16.3266 18.2614 16.4761 17.4887H1.33084Z" fill="#E73625"/>
<path d="M11.4929 23.9888C11.5172 23.9896 11.5414 23.9907 11.5657 23.9914C11.7101 23.9966 11.8548 24 12.0005 24C13.2209 24 14.216 23.1839 14.987 21.8559H5.15821C6.96942 23.1156 9.14346 23.8909 11.4929 23.9888Z" fill="#E73625"/>
<path d="M11.7525 0.00624084C5.6031 0.131339 0.591081 4.87933 0.0516758 10.9188H11.7527V0.00624084H11.7525Z" fill="#283991"/>
<path d="M2.40175 6.7989L2.58456 7.36182H3.17686L2.6977 7.70991L2.88071 8.27323L2.40175 7.92494L1.92294 8.27323L2.1056 7.70991L1.62659 7.36182H2.21889L2.40175 6.7989Z" fill="#EFEFEF"/>
<path d="M2.40175 8.78766L2.58456 9.35093H3.17686L2.6977 9.69901L2.88071 10.2623L2.40175 9.91405L1.92294 10.2623L2.1056 9.69901L1.62659 9.35093H2.21889L2.40175 8.78766Z" fill="#EFEFEF"/>
<path d="M4.39085 3.81505L4.57371 4.37817H5.16581L4.6868 4.72645L4.86966 5.28937L4.39085 4.94149L3.91184 5.28937L4.0947 4.72645L3.61549 4.37817H4.20779L4.39085 3.81505Z" fill="#EFEFEF"/>
<path d="M4.39085 5.80415L4.57371 6.36727H5.16581L4.6868 6.71515L4.86966 7.27847L4.39085 6.93059L3.91184 7.27847L4.0947 6.71515L3.61549 6.36727H4.20779L4.39085 5.80415Z" fill="#EFEFEF"/>
<path d="M4.39085 7.79326L4.57371 8.35658H5.16581L4.6868 8.70426L4.86966 9.26758L4.39085 8.91934L3.91184 9.26758L4.0947 8.70426L3.61549 8.35658H4.20779L4.39085 7.79326Z" fill="#EFEFEF"/>
<path d="M0.891599 9.26759L0.708588 8.70427L1.1876 8.35638H0.59565L0.582375 8.31529C0.517369 8.51634 0.458645 8.71982 0.404482 8.92558L0.412842 8.91935L0.891599 9.26759Z" fill="#EFEFEF"/>
<path d="M1.92293 6.28414L2.40174 5.9359L2.88075 6.28414L2.69774 5.72081L3.17675 5.37258H2.58445L2.40159 4.80966L2.21873 5.37258H2.00045C1.95992 5.43399 1.9207 5.49575 1.88128 5.55807L2.10564 5.72081L1.92293 6.28414Z" fill="#EFEFEF"/>
<path d="M4.39085 2.9524L4.86966 3.30028L4.6868 2.73737L5.16561 2.38913H4.8236C4.53313 2.60629 4.25289 2.83612 3.98364 3.07861L3.91144 3.30028L4.39085 2.9524Z" fill="#EFEFEF"/>
<path d="M5.90093 2.30593L6.37994 1.95769L6.85875 2.30593L6.67589 1.74261L7.1547 1.39472H6.5626L6.53777 1.31892C6.33713 1.42142 6.13856 1.52808 5.94451 1.64157L6.08359 1.74255L5.90093 2.30593Z" fill="#EFEFEF"/>
<path d="M6.37994 2.82071L6.5628 3.38347H7.1549L6.67589 3.73171L6.85875 4.29503L6.37994 3.94674L5.90093 4.29503L6.08379 3.73171L5.60463 3.38347H6.19688L6.37994 2.82071Z" fill="#EFEFEF"/>
<path d="M6.37994 4.80981L6.5628 5.37258H7.1549L6.67589 5.72081L6.85875 6.28414L6.37994 5.93585L5.90093 6.28414L6.08379 5.72081L5.60463 5.37258H6.19688L6.37994 4.80981Z" fill="#EFEFEF"/>
<path d="M6.37994 6.7989L6.5628 7.36182H7.1549L6.67589 7.70991L6.85875 8.27323L6.37994 7.92494L5.90093 8.27323L6.08379 7.70991L5.60463 7.36182H6.19688L6.37994 6.7989Z" fill="#EFEFEF"/>
<path d="M6.37994 8.78766L6.5628 9.35093H7.1549L6.67589 9.69901L6.85875 10.2623L6.37994 9.91405L5.90093 10.2623L6.08379 9.69901L5.60463 9.35093H6.19688L6.37994 8.78766Z" fill="#EFEFEF"/>
<path d="M8.36904 1.82596L8.5519 2.38908H9.144L8.6652 2.73736L8.84785 3.30028L8.36904 2.9524L7.88988 3.30028L8.07289 2.73736L7.59373 2.38908H8.18598L8.36904 1.82596Z" fill="#EFEFEF"/>
<path d="M8.36904 3.81505L8.5519 4.37817H9.144L8.6652 4.72645L8.84785 5.28937L8.36904 4.94149L7.88988 5.28937L8.07289 4.72645L7.59373 4.37817H8.18598L8.36904 3.81505Z" fill="#EFEFEF"/>
<path d="M8.36904 5.80415L8.5519 6.36727H9.144L8.6652 6.71515L8.84785 7.27847L8.36904 6.93059L7.88988 7.27847L8.07289 6.71515L7.59373 6.36727H8.18598L8.36904 5.80415Z" fill="#EFEFEF"/>
<path d="M8.36904 7.79326L8.5519 8.35658H9.144L8.6652 8.70426L8.84785 9.26758L8.36904 8.91934L7.88988 9.26758L8.07289 8.70426L7.59373 8.35658H8.18598L8.36904 7.79326Z" fill="#EFEFEF"/>
<path d="M10.3581 0.831619L10.541 1.39474H11.1331L10.6541 1.74262L10.837 2.30594L10.3581 1.95765L9.87899 2.30594L10.062 1.74262L9.58284 1.39474H10.1749L10.3581 0.831619Z" fill="#EFEFEF"/>
<path d="M10.3581 2.82071L10.541 3.38347H11.1331L10.6541 3.73171L10.837 4.29503L10.3581 3.94674L9.87899 4.29503L10.062 3.73171L9.58284 3.38347H10.1749L10.3581 2.82071Z" fill="#EFEFEF"/>
<path d="M10.3581 4.80981L10.541 5.37258H11.1331L10.6541 5.72081L10.837 6.28414L10.3581 5.93585L9.87899 6.28414L10.062 5.72081L9.58284 5.37258H10.1749L10.3581 4.80981Z" fill="#EFEFEF"/>
<path d="M10.3581 6.7989L10.541 7.36182H11.1331L10.6541 7.70991L10.837 8.27323L10.3581 7.92494L9.87899 8.27323L10.062 7.70991L9.58284 7.36182H10.1749L10.3581 6.7989Z" fill="#EFEFEF"/>
<path d="M10.3581 8.78766L10.541 9.35093H11.1331L10.6541 9.69901L10.837 10.2623L10.3581 9.91405L9.87899 10.2623L10.062 9.69901L9.58284 9.35093H10.1749L10.3581 8.78766Z" fill="#EFEFEF"/>
</svg>
