<svg width="24" height="24" viewBox="0 0 24 24" fill="none" xmlns="http://www.w3.org/2000/svg">
<path d="M12.0012 24.0008C18.6284 24.0008 24.0007 18.6285 24.0007 12.0013C24.0007 5.37421 18.6284 0.00186157 12.0012 0.00186157C5.37412 0.00186157 0.00177765 5.37421 0.00177765 12.0013C0.00177765 18.6285 5.37412 24.0008 12.0012 24.0008Z" fill="white"/>
<path d="M23.3141 7.99902C23.3127 7.99522 23.3116 7.99202 23.3103 7.98858C21.7744 3.65827 17.8241 0.47228 13.0778 0.0493622C14.9144 1.05622 15.4507 4.24621 15.9207 7.99907C16.2417 10.5625 16.2437 13.3869 15.9268 15.9535C15.4608 19.7267 14.9222 22.9392 13.0779 23.9503C17.8329 23.5266 21.7889 20.3296 23.3187 15.9876C23.3227 15.9761 23.3261 15.9647 23.3302 15.9535C23.7622 14.7153 24 13.3856 24 12.0002C23.9998 10.5966 23.7567 9.25054 23.3141 7.99902Z" fill="#ED3432"/>
<path d="M16.5383 7.999C16.0686 4.2461 14.9143 1.05615 13.0776 0.049299C12.7223 0.0178348 12.3631 0 11.9997 0C6.77955 0 2.34021 3.33404 0.689477 7.98857C0.688159 7.99196 0.686994 7.9952 0.685677 7.999C0.2431 9.25053 0 10.5965 0 12.0001C0 13.3857 0.23778 14.7152 0.669767 15.9534C0.67377 15.9646 0.677367 15.976 0.681319 15.9875C2.32557 20.6541 6.77099 23.9997 11.9997 23.9997C12.3631 23.9997 12.7223 23.9819 13.0776 23.9501C14.9219 22.9391 16.0784 19.7265 16.5443 15.9534C16.8614 13.3867 16.8593 10.5624 16.5383 7.999Z" fill="#ED3432"/>
<path d="M11.8925 5.84972L13.3179 10.2371H17.9314L14.1989 12.9482L15.6245 17.3361L11.8925 14.6243L8.16023 17.3361L9.58584 12.9482L5.85356 10.2371H10.4669L11.8925 5.84972Z" fill="#FDCE0C"/>
</svg>
